G04*
G04 #@! TF.GenerationSoftware,Altium Limited,Altium Designer,22.2.1 (43)*
G04*
G04 Layer_Color=8421504*
%FSLAX24Y24*%
%MOIN*%
G70*
G04*
G04 #@! TF.SameCoordinates,385840A5-E032-4D16-B727-23F4FCC5E7AD*
G04*
G04*
G04 #@! TF.FilePolarity,Positive*
G04*
G01*
G75*
G04:AMPARAMS|DCode=14|XSize=22.8mil|YSize=62.2mil|CornerRadius=5.7mil|HoleSize=0mil|Usage=FLASHONLY|Rotation=270.000|XOffset=0mil|YOffset=0mil|HoleType=Round|Shape=RoundedRectangle|*
%AMROUNDEDRECTD14*
21,1,0.0228,0.0508,0,0,270.0*
21,1,0.0114,0.0622,0,0,270.0*
1,1,0.0114,-0.0254,-0.0057*
1,1,0.0114,-0.0254,0.0057*
1,1,0.0114,0.0254,0.0057*
1,1,0.0114,0.0254,-0.0057*
%
%ADD14ROUNDEDRECTD14*%
G04:AMPARAMS|DCode=15|XSize=23.6mil|YSize=21.7mil|CornerRadius=5.4mil|HoleSize=0mil|Usage=FLASHONLY|Rotation=90.000|XOffset=0mil|YOffset=0mil|HoleType=Round|Shape=RoundedRectangle|*
%AMROUNDEDRECTD15*
21,1,0.0236,0.0108,0,0,90.0*
21,1,0.0128,0.0217,0,0,90.0*
1,1,0.0108,0.0054,0.0064*
1,1,0.0108,0.0054,-0.0064*
1,1,0.0108,-0.0054,-0.0064*
1,1,0.0108,-0.0054,0.0064*
%
%ADD15ROUNDEDRECTD15*%
G04:AMPARAMS|DCode=16|XSize=19.7mil|YSize=19.7mil|CornerRadius=4.9mil|HoleSize=0mil|Usage=FLASHONLY|Rotation=90.000|XOffset=0mil|YOffset=0mil|HoleType=Round|Shape=RoundedRectangle|*
%AMROUNDEDRECTD16*
21,1,0.0197,0.0098,0,0,90.0*
21,1,0.0098,0.0197,0,0,90.0*
1,1,0.0098,0.0049,0.0049*
1,1,0.0098,0.0049,-0.0049*
1,1,0.0098,-0.0049,-0.0049*
1,1,0.0098,-0.0049,0.0049*
%
%ADD16ROUNDEDRECTD16*%
G04:AMPARAMS|DCode=17|XSize=25.2mil|YSize=25.2mil|CornerRadius=6.3mil|HoleSize=0mil|Usage=FLASHONLY|Rotation=0.000|XOffset=0mil|YOffset=0mil|HoleType=Round|Shape=RoundedRectangle|*
%AMROUNDEDRECTD17*
21,1,0.0252,0.0126,0,0,0.0*
21,1,0.0126,0.0252,0,0,0.0*
1,1,0.0126,0.0063,-0.0063*
1,1,0.0126,-0.0063,-0.0063*
1,1,0.0126,-0.0063,0.0063*
1,1,0.0126,0.0063,0.0063*
%
%ADD17ROUNDEDRECTD17*%
%ADD18O,0.0236X0.0571*%
%ADD19O,0.0098X0.0315*%
%ADD20O,0.0315X0.0098*%
G04:AMPARAMS|DCode=21|XSize=23.6mil|YSize=23.6mil|CornerRadius=5.9mil|HoleSize=0mil|Usage=FLASHONLY|Rotation=90.000|XOffset=0mil|YOffset=0mil|HoleType=Round|Shape=RoundedRectangle|*
%AMROUNDEDRECTD21*
21,1,0.0236,0.0118,0,0,90.0*
21,1,0.0118,0.0236,0,0,90.0*
1,1,0.0118,0.0059,0.0059*
1,1,0.0118,0.0059,-0.0059*
1,1,0.0118,-0.0059,-0.0059*
1,1,0.0118,-0.0059,0.0059*
%
%ADD21ROUNDEDRECTD21*%
G04:AMPARAMS|DCode=22|XSize=25.2mil|YSize=25.2mil|CornerRadius=6.3mil|HoleSize=0mil|Usage=FLASHONLY|Rotation=90.000|XOffset=0mil|YOffset=0mil|HoleType=Round|Shape=RoundedRectangle|*
%AMROUNDEDRECTD22*
21,1,0.0252,0.0126,0,0,90.0*
21,1,0.0126,0.0252,0,0,90.0*
1,1,0.0126,0.0063,0.0063*
1,1,0.0126,0.0063,-0.0063*
1,1,0.0126,-0.0063,-0.0063*
1,1,0.0126,-0.0063,0.0063*
%
%ADD22ROUNDEDRECTD22*%
G04:AMPARAMS|DCode=23|XSize=23.6mil|YSize=23.6mil|CornerRadius=5.9mil|HoleSize=0mil|Usage=FLASHONLY|Rotation=0.000|XOffset=0mil|YOffset=0mil|HoleType=Round|Shape=RoundedRectangle|*
%AMROUNDEDRECTD23*
21,1,0.0236,0.0118,0,0,0.0*
21,1,0.0118,0.0236,0,0,0.0*
1,1,0.0118,0.0059,-0.0059*
1,1,0.0118,-0.0059,-0.0059*
1,1,0.0118,-0.0059,0.0059*
1,1,0.0118,0.0059,0.0059*
%
%ADD23ROUNDEDRECTD23*%
G04:AMPARAMS|DCode=24|XSize=58.3mil|YSize=58.3mil|CornerRadius=0mil|HoleSize=0mil|Usage=FLASHONLY|Rotation=0.000|XOffset=0mil|YOffset=0mil|HoleType=Round|Shape=RoundedRectangle|*
%AMROUNDEDRECTD24*
21,1,0.0583,0.0583,0,0,0.0*
21,1,0.0583,0.0583,0,0,0.0*
1,1,0.0000,0.0291,-0.0291*
1,1,0.0000,-0.0291,-0.0291*
1,1,0.0000,-0.0291,0.0291*
1,1,0.0000,0.0291,0.0291*
%
%ADD24ROUNDEDRECTD24*%
G04:AMPARAMS|DCode=25|XSize=47.2mil|YSize=47.2mil|CornerRadius=11.8mil|HoleSize=0mil|Usage=FLASHONLY|Rotation=0.000|XOffset=0mil|YOffset=0mil|HoleType=Round|Shape=RoundedRectangle|*
%AMROUNDEDRECTD25*
21,1,0.0472,0.0236,0,0,0.0*
21,1,0.0236,0.0472,0,0,0.0*
1,1,0.0236,0.0118,-0.0118*
1,1,0.0236,-0.0118,-0.0118*
1,1,0.0236,-0.0118,0.0118*
1,1,0.0236,0.0118,0.0118*
%
%ADD25ROUNDEDRECTD25*%
G04:AMPARAMS|DCode=26|XSize=63mil|YSize=59.1mil|CornerRadius=14.8mil|HoleSize=0mil|Usage=FLASHONLY|Rotation=0.000|XOffset=0mil|YOffset=0mil|HoleType=Round|Shape=RoundedRectangle|*
%AMROUNDEDRECTD26*
21,1,0.0630,0.0295,0,0,0.0*
21,1,0.0335,0.0591,0,0,0.0*
1,1,0.0295,0.0167,-0.0148*
1,1,0.0295,-0.0167,-0.0148*
1,1,0.0295,-0.0167,0.0148*
1,1,0.0295,0.0167,0.0148*
%
%ADD26ROUNDEDRECTD26*%
G04:AMPARAMS|DCode=27|XSize=37.4mil|YSize=41.3mil|CornerRadius=9.4mil|HoleSize=0mil|Usage=FLASHONLY|Rotation=270.000|XOffset=0mil|YOffset=0mil|HoleType=Round|Shape=RoundedRectangle|*
%AMROUNDEDRECTD27*
21,1,0.0374,0.0226,0,0,270.0*
21,1,0.0187,0.0413,0,0,270.0*
1,1,0.0187,-0.0113,-0.0094*
1,1,0.0187,-0.0113,0.0094*
1,1,0.0187,0.0113,0.0094*
1,1,0.0187,0.0113,-0.0094*
%
%ADD27ROUNDEDRECTD27*%
D14*
X699Y3657D02*
D03*
Y4413D02*
D03*
X8465Y3941D02*
D03*
Y3185D02*
D03*
D15*
X1083Y4035D02*
D03*
X8081Y3563D02*
D03*
D16*
X305Y4035D02*
D03*
X8858Y3563D02*
D03*
D17*
X3543Y606D02*
D03*
Y969D02*
D03*
X3937Y3953D02*
D03*
X6496Y3854D02*
D03*
X6102D02*
D03*
X3248Y4906D02*
D03*
X6102Y3134D02*
D03*
X886Y2181D02*
D03*
X394Y2181D02*
D03*
X3937Y2740D02*
D03*
X7677Y2378D02*
D03*
X394Y2543D02*
D03*
X886Y2543D02*
D03*
X6102Y2772D02*
D03*
X3937Y4315D02*
D03*
X6496Y4217D02*
D03*
X6102D02*
D03*
X3248Y4543D02*
D03*
X7677Y2740D02*
D03*
X3937Y2378D02*
D03*
X3543Y1953D02*
D03*
Y1591D02*
D03*
D18*
X2514Y502D02*
D03*
X1514Y2648D02*
D03*
Y502D02*
D03*
X2014D02*
D03*
X3014D02*
D03*
X2014Y2648D02*
D03*
X2514D02*
D03*
X3014D02*
D03*
D19*
X4921Y3996D02*
D03*
Y2854D02*
D03*
X5315D02*
D03*
X4724D02*
D03*
X5118D02*
D03*
X5315Y3996D02*
D03*
X5118D02*
D03*
X4724D02*
D03*
D20*
X5591Y3720D02*
D03*
X4449D02*
D03*
X5591Y3327D02*
D03*
X4449Y3524D02*
D03*
Y3327D02*
D03*
Y3130D02*
D03*
X5591D02*
D03*
Y3524D02*
D03*
D21*
X2835Y4921D02*
D03*
X5591Y4823D02*
D03*
Y4429D02*
D03*
X1594Y3248D02*
D03*
X2480Y4921D02*
D03*
X6870Y2362D02*
D03*
X6516D02*
D03*
X6909Y2756D02*
D03*
X7264D02*
D03*
X7657Y3563D02*
D03*
X7303D02*
D03*
X5236Y4823D02*
D03*
Y4429D02*
D03*
X2736Y4035D02*
D03*
X2382D02*
D03*
X1949Y3248D02*
D03*
D22*
X4807Y4528D02*
D03*
X5512Y2362D02*
D03*
X4709D02*
D03*
X4709Y1969D02*
D03*
X4346Y2362D02*
D03*
X5874D02*
D03*
X4346Y1969D02*
D03*
X4445Y4528D02*
D03*
D23*
X5118Y1988D02*
D03*
X394Y1752D02*
D03*
X7087Y906D02*
D03*
X1575Y3661D02*
D03*
X394Y1398D02*
D03*
X7087Y1260D02*
D03*
X6890Y3524D02*
D03*
Y3169D02*
D03*
X5118Y2343D02*
D03*
X3937Y1594D02*
D03*
Y1949D02*
D03*
Y3524D02*
D03*
Y3169D02*
D03*
X1575Y4016D02*
D03*
X1969D02*
D03*
Y3661D02*
D03*
D24*
X5020Y3425D02*
D03*
D25*
X6496Y472D02*
D03*
X5709D02*
D03*
D26*
X6102Y1752D02*
D03*
D27*
X2766Y3543D02*
D03*
X3337D02*
D03*
M02*
