G04*
G04 #@! TF.GenerationSoftware,Altium Limited,Altium Designer,22.2.1 (43)*
G04*
G04 Layer_Physical_Order=2*
G04 Layer_Color=36540*
%FSLAX24Y24*%
%MOIN*%
G70*
G04*
G04 #@! TF.SameCoordinates,385840A5-E032-4D16-B727-23F4FCC5E7AD*
G04*
G04*
G04 #@! TF.FilePolarity,Positive*
G04*
G01*
G75*
G36*
X8677Y5188D02*
X8683Y5188D01*
X8690Y5187D01*
X8705Y5184D01*
X8705D01*
X8708Y5184D01*
X8711Y5183D01*
X8716Y5182D01*
X8722Y5180D01*
X8728Y5178D01*
X8742Y5173D01*
Y5130D01*
X8741Y5130D01*
X8739Y5132D01*
X8735Y5133D01*
X8731Y5135D01*
X8725Y5138D01*
X8719Y5140D01*
X8712Y5142D01*
X8705Y5144D01*
X8705Y5145D01*
X8702Y5145D01*
X8698Y5146D01*
X8693Y5147D01*
X8687Y5148D01*
X8680Y5149D01*
X8673Y5149D01*
X8665Y5150D01*
X8661D01*
X8657Y5149D01*
X8651Y5148D01*
X8645Y5148D01*
X8638Y5146D01*
X8631Y5144D01*
X8624Y5141D01*
X8623Y5141D01*
X8621Y5139D01*
X8617Y5137D01*
X8613Y5135D01*
X8608Y5131D01*
X8603Y5127D01*
X8597Y5122D01*
X8593Y5116D01*
X8592Y5115D01*
X8591Y5113D01*
X8588Y5110D01*
X8585Y5105D01*
X8582Y5099D01*
X8579Y5093D01*
X8576Y5085D01*
X8573Y5077D01*
Y5076D01*
X8572Y5075D01*
Y5074D01*
X8572Y5073D01*
X8571Y5070D01*
X8571Y5068D01*
X8570Y5061D01*
X8568Y5054D01*
X8568Y5045D01*
X8567Y5035D01*
X8566Y5024D01*
Y5023D01*
Y5021D01*
Y5018D01*
X8567Y5013D01*
X8567Y5008D01*
X8568Y5002D01*
X8568Y4996D01*
X8570Y4988D01*
X8572Y4973D01*
X8575Y4965D01*
X8577Y4958D01*
X8580Y4950D01*
X8583Y4943D01*
X8587Y4936D01*
X8591Y4929D01*
X8592Y4929D01*
X8593Y4928D01*
X8594Y4927D01*
X8596Y4924D01*
X8599Y4922D01*
X8602Y4920D01*
X8606Y4917D01*
X8610Y4914D01*
X8615Y4911D01*
X8620Y4908D01*
X8627Y4905D01*
X8634Y4903D01*
X8641Y4901D01*
X8648Y4899D01*
X8657Y4898D01*
X8666Y4898D01*
X8669D01*
X8673Y4898D01*
X8678D01*
X8684Y4899D01*
X8691Y4900D01*
X8698Y4901D01*
X8705Y4902D01*
X8706D01*
X8706Y4903D01*
X8709Y4903D01*
X8712Y4904D01*
X8717Y4906D01*
X8723Y4908D01*
X8729Y4910D01*
X8742Y4916D01*
Y4874D01*
X8741D01*
X8740Y4874D01*
X8738Y4873D01*
X8735Y4872D01*
X8732Y4871D01*
X8727Y4870D01*
X8723Y4868D01*
X8717Y4867D01*
X8711Y4865D01*
X8705Y4863D01*
X8691Y4861D01*
X8676Y4859D01*
X8661Y4858D01*
X8658D01*
X8654Y4859D01*
X8650Y4859D01*
X8644Y4860D01*
X8637Y4861D01*
X8630Y4862D01*
X8622Y4863D01*
X8614Y4866D01*
X8605Y4868D01*
X8597Y4872D01*
X8588Y4876D01*
X8579Y4880D01*
X8571Y4886D01*
X8563Y4892D01*
X8556Y4899D01*
X8556Y4899D01*
X8554Y4901D01*
X8553Y4904D01*
X8550Y4907D01*
X8547Y4911D01*
X8545Y4916D01*
X8541Y4922D01*
X8538Y4929D01*
X8534Y4938D01*
X8531Y4947D01*
X8528Y4956D01*
X8525Y4967D01*
X8523Y4979D01*
X8521Y4992D01*
X8520Y5005D01*
X8520Y5020D01*
Y5020D01*
Y5021D01*
Y5023D01*
Y5026D01*
X8520Y5029D01*
Y5034D01*
X8520Y5038D01*
X8521Y5043D01*
X8522Y5054D01*
X8524Y5066D01*
X8526Y5078D01*
X8529Y5090D01*
Y5090D01*
X8530Y5091D01*
X8531Y5093D01*
X8531Y5095D01*
X8532Y5098D01*
X8534Y5101D01*
X8537Y5108D01*
X8541Y5116D01*
X8546Y5125D01*
X8552Y5134D01*
X8558Y5143D01*
X8559Y5143D01*
X8559Y5143D01*
X8560Y5145D01*
X8561Y5146D01*
X8566Y5150D01*
X8571Y5155D01*
X8577Y5161D01*
X8585Y5166D01*
X8594Y5172D01*
X8604Y5177D01*
X8604D01*
X8605Y5177D01*
X8607Y5178D01*
X8608Y5179D01*
X8611Y5180D01*
X8614Y5180D01*
X8617Y5182D01*
X8621Y5183D01*
X8630Y5185D01*
X8640Y5187D01*
X8651Y5188D01*
X8663Y5189D01*
X8671D01*
X8677Y5188D01*
D02*
G37*
G36*
X7914Y4863D02*
X7854D01*
X7764Y5063D01*
X7739Y5128D01*
Y4965D01*
Y4863D01*
X7695D01*
Y5184D01*
X7753D01*
X7839Y4994D01*
X7870Y4920D01*
Y5093D01*
Y5184D01*
X7914D01*
Y4863D01*
D02*
G37*
G36*
X9025Y4975D02*
Y4974D01*
Y4973D01*
Y4972D01*
Y4970D01*
X9024Y4968D01*
Y4965D01*
X9024Y4959D01*
X9023Y4951D01*
X9021Y4943D01*
X9019Y4934D01*
X9017Y4926D01*
Y4926D01*
X9017Y4925D01*
X9016Y4924D01*
X9016Y4922D01*
X9014Y4919D01*
X9012Y4913D01*
X9008Y4908D01*
X9005Y4902D01*
X9000Y4895D01*
X8995Y4890D01*
X8994Y4889D01*
X8992Y4887D01*
X8989Y4884D01*
X8985Y4881D01*
X8980Y4877D01*
X8974Y4873D01*
X8967Y4870D01*
X8959Y4866D01*
X8959D01*
X8958Y4866D01*
X8957Y4865D01*
X8955Y4865D01*
X8951Y4864D01*
X8945Y4862D01*
X8938Y4861D01*
X8930Y4859D01*
X8921Y4858D01*
X8911Y4858D01*
X8906D01*
X8903Y4858D01*
X8900D01*
X8894Y4859D01*
X8885Y4860D01*
X8877Y4861D01*
X8868Y4863D01*
X8860Y4866D01*
X8859D01*
X8859Y4866D01*
X8857Y4868D01*
X8853Y4869D01*
X8848Y4872D01*
X8842Y4875D01*
X8837Y4879D01*
X8831Y4883D01*
X8826Y4888D01*
X8825Y4889D01*
X8824Y4890D01*
X8821Y4894D01*
X8818Y4898D01*
X8815Y4903D01*
X8812Y4909D01*
X8809Y4915D01*
X8807Y4922D01*
Y4923D01*
X8806Y4923D01*
Y4924D01*
X8806Y4926D01*
X8805Y4930D01*
X8804Y4936D01*
X8802Y4943D01*
X8802Y4950D01*
X8801Y4959D01*
X8801Y4968D01*
Y5184D01*
X8845D01*
Y4971D01*
Y4970D01*
Y4968D01*
Y4964D01*
X8845Y4960D01*
X8846Y4954D01*
X8846Y4949D01*
X8847Y4943D01*
X8848Y4938D01*
Y4937D01*
X8849Y4935D01*
X8850Y4933D01*
X8851Y4929D01*
X8853Y4925D01*
X8855Y4922D01*
X8857Y4918D01*
X8860Y4914D01*
X8860Y4913D01*
X8862Y4912D01*
X8863Y4911D01*
X8866Y4909D01*
X8869Y4906D01*
X8872Y4904D01*
X8876Y4902D01*
X8881Y4899D01*
X8881D01*
X8883Y4899D01*
X8886Y4898D01*
X8890Y4897D01*
X8894Y4896D01*
X8900Y4895D01*
X8906Y4895D01*
X8912Y4895D01*
X8916D01*
X8918Y4895D01*
X8921Y4895D01*
X8924Y4896D01*
X8932Y4897D01*
X8940Y4899D01*
X8949Y4903D01*
X8953Y4905D01*
X8957Y4908D01*
X8961Y4911D01*
X8964Y4915D01*
Y4915D01*
X8965Y4915D01*
X8966Y4917D01*
X8967Y4918D01*
X8968Y4920D01*
X8969Y4923D01*
X8971Y4926D01*
X8973Y4929D01*
X8974Y4933D01*
X8976Y4938D01*
X8977Y4942D01*
X8978Y4947D01*
X8979Y4953D01*
X8980Y4959D01*
X8981Y4972D01*
Y5184D01*
X9025D01*
Y4975D01*
D02*
G37*
G36*
X8091Y5189D02*
X8094D01*
X8102Y5188D01*
X8110Y5186D01*
X8119Y5184D01*
X8128Y5181D01*
X8137Y5177D01*
X8138D01*
X8139Y5177D01*
X8140Y5176D01*
X8141Y5175D01*
X8146Y5173D01*
X8151Y5169D01*
X8157Y5164D01*
X8163Y5159D01*
X8169Y5152D01*
X8176Y5145D01*
Y5144D01*
X8176Y5144D01*
X8177Y5143D01*
X8178Y5141D01*
X8179Y5139D01*
X8181Y5136D01*
X8184Y5130D01*
X8188Y5123D01*
X8192Y5114D01*
X8195Y5104D01*
X8199Y5093D01*
Y5093D01*
X8199Y5092D01*
X8199Y5091D01*
X8200Y5088D01*
X8200Y5085D01*
X8201Y5082D01*
X8202Y5078D01*
X8203Y5074D01*
X8203Y5069D01*
X8204Y5063D01*
X8205Y5052D01*
X8206Y5039D01*
X8206Y5025D01*
Y5025D01*
Y5023D01*
Y5021D01*
Y5018D01*
X8206Y5014D01*
Y5010D01*
X8206Y5005D01*
X8205Y5000D01*
X8204Y4988D01*
X8202Y4975D01*
X8199Y4963D01*
X8196Y4950D01*
Y4950D01*
X8196Y4949D01*
X8195Y4947D01*
X8194Y4945D01*
X8193Y4943D01*
X8192Y4939D01*
X8189Y4932D01*
X8185Y4924D01*
X8180Y4915D01*
X8174Y4906D01*
X8168Y4898D01*
Y4898D01*
X8167Y4897D01*
X8165Y4895D01*
X8162Y4891D01*
X8157Y4887D01*
X8151Y4882D01*
X8144Y4877D01*
X8136Y4872D01*
X8128Y4868D01*
X8127D01*
X8126Y4868D01*
X8125Y4867D01*
X8124Y4866D01*
X8121Y4865D01*
X8119Y4865D01*
X8113Y4863D01*
X8105Y4861D01*
X8097Y4860D01*
X8088Y4858D01*
X8078Y4858D01*
X8073D01*
X8071Y4858D01*
X8067D01*
X8060Y4859D01*
X8052Y4861D01*
X8043Y4863D01*
X8033Y4865D01*
X8024Y4869D01*
X8024D01*
X8023Y4870D01*
X8022Y4870D01*
X8021Y4871D01*
X8016Y4874D01*
X8011Y4877D01*
X8005Y4882D01*
X7998Y4888D01*
X7992Y4894D01*
X7986Y4902D01*
Y4902D01*
X7985Y4902D01*
X7985Y4904D01*
X7984Y4905D01*
X7983Y4907D01*
X7981Y4910D01*
X7978Y4916D01*
X7974Y4924D01*
X7971Y4932D01*
X7967Y4942D01*
X7964Y4953D01*
Y4954D01*
X7964Y4954D01*
X7963Y4956D01*
X7963Y4959D01*
X7962Y4961D01*
X7962Y4965D01*
X7961Y4969D01*
X7960Y4973D01*
X7960Y4978D01*
X7959Y4983D01*
X7958Y4995D01*
X7957Y5008D01*
X7957Y5022D01*
Y5022D01*
Y5024D01*
Y5026D01*
Y5029D01*
X7957Y5033D01*
Y5037D01*
X7957Y5042D01*
X7958Y5047D01*
X7959Y5059D01*
X7961Y5071D01*
X7963Y5084D01*
X7967Y5096D01*
Y5096D01*
X7967Y5097D01*
X7968Y5099D01*
X7969Y5101D01*
X7969Y5104D01*
X7971Y5107D01*
X7974Y5114D01*
X7978Y5123D01*
X7983Y5131D01*
X7988Y5140D01*
X7994Y5148D01*
X7994Y5148D01*
X7995Y5149D01*
X7997Y5151D01*
X8001Y5155D01*
X8005Y5160D01*
X8011Y5165D01*
X8018Y5170D01*
X8026Y5175D01*
X8034Y5179D01*
X8035D01*
X8035Y5179D01*
X8037Y5180D01*
X8038Y5180D01*
X8040Y5181D01*
X8043Y5182D01*
X8049Y5184D01*
X8056Y5186D01*
X8065Y5187D01*
X8074Y5189D01*
X8083Y5189D01*
X8089D01*
X8091Y5189D01*
D02*
G37*
G36*
X8193Y4467D02*
X8134D01*
X8044Y4668D01*
X8018Y4733D01*
Y4570D01*
Y4467D01*
X7974D01*
Y4789D01*
X8033D01*
X8118Y4599D01*
X8149Y4525D01*
Y4697D01*
Y4789D01*
X8193D01*
Y4467D01*
D02*
G37*
G36*
X8919Y4793D02*
X8924Y4793D01*
X8930Y4792D01*
X8937Y4791D01*
X8944Y4789D01*
X8950Y4787D01*
X8951D01*
X8951Y4787D01*
X8953Y4786D01*
X8956Y4784D01*
X8960Y4782D01*
X8965Y4780D01*
X8970Y4776D01*
X8976Y4773D01*
X8980Y4768D01*
X8981Y4768D01*
X8982Y4766D01*
X8985Y4764D01*
X8988Y4760D01*
X8991Y4756D01*
X8994Y4751D01*
X8997Y4745D01*
X9000Y4739D01*
X9001Y4738D01*
X9001Y4736D01*
X9003Y4732D01*
X9004Y4727D01*
X9005Y4722D01*
X9006Y4715D01*
X9007Y4708D01*
X9007Y4700D01*
Y4699D01*
Y4697D01*
X9007Y4693D01*
Y4689D01*
X9006Y4683D01*
X9005Y4678D01*
X9004Y4672D01*
X9003Y4665D01*
X9002Y4665D01*
X9002Y4663D01*
X9001Y4660D01*
X8999Y4656D01*
X8997Y4651D01*
X8994Y4646D01*
X8991Y4640D01*
X8987Y4634D01*
X8987Y4633D01*
X8986Y4631D01*
X8983Y4628D01*
X8980Y4624D01*
X8977Y4619D01*
X8973Y4614D01*
X8968Y4608D01*
X8962Y4602D01*
X8962Y4601D01*
X8960Y4599D01*
X8957Y4595D01*
X8952Y4591D01*
X8947Y4585D01*
X8941Y4579D01*
X8934Y4572D01*
X8927Y4565D01*
X8869Y4508D01*
X9025D01*
Y4467D01*
X8813D01*
Y4505D01*
X8896Y4588D01*
X8896Y4589D01*
X8896Y4589D01*
X8899Y4592D01*
X8903Y4595D01*
X8907Y4600D01*
X8913Y4606D01*
X8918Y4612D01*
X8924Y4617D01*
X8929Y4623D01*
X8929Y4624D01*
X8931Y4626D01*
X8933Y4628D01*
X8936Y4632D01*
X8939Y4636D01*
X8943Y4641D01*
X8946Y4646D01*
X8949Y4650D01*
X8949Y4651D01*
X8950Y4652D01*
X8951Y4655D01*
X8953Y4658D01*
X8955Y4661D01*
X8956Y4665D01*
X8957Y4669D01*
X8959Y4673D01*
Y4674D01*
X8959Y4675D01*
X8960Y4677D01*
X8960Y4680D01*
X8960Y4684D01*
X8961Y4688D01*
X8961Y4697D01*
Y4697D01*
Y4699D01*
Y4701D01*
X8961Y4704D01*
X8960Y4707D01*
X8960Y4711D01*
X8958Y4719D01*
Y4719D01*
X8957Y4721D01*
X8957Y4723D01*
X8955Y4726D01*
X8952Y4731D01*
X8948Y4738D01*
X8947Y4738D01*
X8946Y4739D01*
X8945Y4741D01*
X8943Y4742D01*
X8941Y4744D01*
X8938Y4747D01*
X8934Y4749D01*
X8930Y4751D01*
X8930Y4751D01*
X8929Y4751D01*
X8926Y4752D01*
X8923Y4753D01*
X8920Y4754D01*
X8916Y4755D01*
X8911Y4756D01*
X8902D01*
X8898Y4755D01*
X8893Y4754D01*
X8887Y4753D01*
X8881Y4751D01*
X8875Y4749D01*
X8868Y4746D01*
X8867Y4746D01*
X8865Y4744D01*
X8862Y4742D01*
X8858Y4740D01*
X8853Y4736D01*
X8848Y4733D01*
X8843Y4728D01*
X8837Y4723D01*
X8814Y4751D01*
X8814Y4751D01*
X8815Y4752D01*
X8817Y4754D01*
X8821Y4758D01*
X8826Y4762D01*
X8832Y4767D01*
X8839Y4772D01*
X8847Y4777D01*
X8856Y4782D01*
X8856D01*
X8857Y4782D01*
X8858Y4783D01*
X8860Y4784D01*
X8862Y4785D01*
X8865Y4785D01*
X8868Y4787D01*
X8872Y4788D01*
X8880Y4790D01*
X8889Y4792D01*
X8900Y4793D01*
X8911Y4794D01*
X8915D01*
X8919Y4793D01*
D02*
G37*
G36*
X8602Y4505D02*
X8742D01*
Y4467D01*
X8557D01*
Y4789D01*
X8602D01*
Y4505D01*
D02*
G37*
G36*
X7816Y4793D02*
X7820D01*
X7827Y4792D01*
X7836Y4791D01*
X7845Y4789D01*
X7854Y4786D01*
X7863Y4782D01*
X7863D01*
X7864Y4782D01*
X7865Y4781D01*
X7866Y4780D01*
X7871Y4777D01*
X7876Y4774D01*
X7882Y4769D01*
X7889Y4763D01*
X7895Y4757D01*
X7901Y4749D01*
Y4749D01*
X7902Y4749D01*
X7903Y4747D01*
X7903Y4746D01*
X7905Y4744D01*
X7906Y4741D01*
X7910Y4735D01*
X7913Y4728D01*
X7917Y4719D01*
X7921Y4709D01*
X7924Y4698D01*
Y4698D01*
X7924Y4697D01*
X7925Y4695D01*
X7925Y4693D01*
X7926Y4690D01*
X7926Y4687D01*
X7927Y4683D01*
X7928Y4678D01*
X7928Y4674D01*
X7929Y4668D01*
X7930Y4657D01*
X7931Y4644D01*
X7932Y4630D01*
Y4630D01*
Y4628D01*
Y4626D01*
Y4623D01*
X7931Y4619D01*
Y4615D01*
X7931Y4610D01*
X7930Y4604D01*
X7929Y4593D01*
X7927Y4580D01*
X7925Y4567D01*
X7921Y4555D01*
Y4555D01*
X7921Y4554D01*
X7920Y4552D01*
X7919Y4550D01*
X7919Y4547D01*
X7917Y4544D01*
X7914Y4537D01*
X7910Y4529D01*
X7905Y4520D01*
X7900Y4511D01*
X7894Y4503D01*
Y4503D01*
X7893Y4502D01*
X7891Y4500D01*
X7887Y4496D01*
X7882Y4492D01*
X7876Y4487D01*
X7869Y4482D01*
X7862Y4477D01*
X7853Y4473D01*
X7853D01*
X7852Y4472D01*
X7850Y4472D01*
X7849Y4471D01*
X7847Y4470D01*
X7844Y4469D01*
X7838Y4468D01*
X7831Y4466D01*
X7822Y4464D01*
X7813Y4463D01*
X7804Y4463D01*
X7798D01*
X7796Y4463D01*
X7793D01*
X7785Y4464D01*
X7777Y4466D01*
X7768Y4467D01*
X7759Y4470D01*
X7750Y4474D01*
X7749D01*
X7749Y4474D01*
X7748Y4475D01*
X7746Y4476D01*
X7741Y4478D01*
X7736Y4482D01*
X7730Y4487D01*
X7724Y4492D01*
X7718Y4499D01*
X7711Y4506D01*
Y4507D01*
X7711Y4507D01*
X7710Y4508D01*
X7709Y4510D01*
X7708Y4512D01*
X7707Y4514D01*
X7703Y4521D01*
X7700Y4528D01*
X7696Y4537D01*
X7693Y4547D01*
X7689Y4558D01*
Y4558D01*
X7689Y4559D01*
X7689Y4561D01*
X7688Y4563D01*
X7688Y4566D01*
X7687Y4569D01*
X7686Y4574D01*
X7686Y4578D01*
X7685Y4583D01*
X7684Y4588D01*
X7683Y4600D01*
X7682Y4612D01*
X7682Y4626D01*
Y4627D01*
Y4628D01*
Y4631D01*
Y4634D01*
X7682Y4637D01*
Y4642D01*
X7683Y4647D01*
X7683Y4652D01*
X7684Y4663D01*
X7686Y4676D01*
X7689Y4688D01*
X7692Y4701D01*
Y4701D01*
X7692Y4702D01*
X7693Y4703D01*
X7694Y4706D01*
X7695Y4708D01*
X7696Y4712D01*
X7699Y4719D01*
X7703Y4727D01*
X7708Y4736D01*
X7713Y4744D01*
X7719Y4753D01*
X7720Y4753D01*
X7720Y4754D01*
X7722Y4756D01*
X7726Y4760D01*
X7731Y4765D01*
X7736Y4770D01*
X7743Y4774D01*
X7751Y4779D01*
X7759Y4783D01*
X7760D01*
X7761Y4784D01*
X7762Y4784D01*
X7764Y4785D01*
X7766Y4786D01*
X7768Y4787D01*
X7774Y4789D01*
X7782Y4790D01*
X7790Y4792D01*
X7799Y4793D01*
X7809Y4794D01*
X7814D01*
X7816Y4793D01*
D02*
G37*
%LPC*%
G36*
X8081Y5150D02*
X8077D01*
X8074Y5150D01*
X8069Y5149D01*
X8063Y5148D01*
X8057Y5146D01*
X8051Y5143D01*
X8045Y5140D01*
X8044Y5140D01*
X8042Y5139D01*
X8039Y5136D01*
X8036Y5133D01*
X8032Y5129D01*
X8028Y5125D01*
X8024Y5119D01*
X8020Y5113D01*
X8019Y5112D01*
X8018Y5110D01*
X8017Y5107D01*
X8014Y5102D01*
X8012Y5096D01*
X8010Y5089D01*
X8007Y5081D01*
X8005Y5073D01*
Y5073D01*
Y5072D01*
X8005Y5070D01*
X8004Y5069D01*
X8004Y5067D01*
Y5064D01*
X8003Y5058D01*
X8002Y5051D01*
X8001Y5043D01*
X8001Y5034D01*
X8001Y5024D01*
Y5024D01*
Y5023D01*
Y5021D01*
Y5019D01*
Y5017D01*
X8001Y5014D01*
Y5007D01*
X8002Y4999D01*
X8003Y4990D01*
X8003Y4981D01*
X8005Y4972D01*
Y4971D01*
X8005Y4971D01*
Y4970D01*
X8006Y4968D01*
X8007Y4963D01*
X8008Y4958D01*
X8010Y4952D01*
X8013Y4945D01*
X8016Y4938D01*
X8019Y4931D01*
X8019Y4931D01*
X8021Y4929D01*
X8023Y4926D01*
X8026Y4922D01*
X8029Y4918D01*
X8034Y4913D01*
X8039Y4909D01*
X8044Y4905D01*
X8045Y4905D01*
X8047Y4904D01*
X8050Y4902D01*
X8055Y4901D01*
X8060Y4899D01*
X8066Y4897D01*
X8073Y4897D01*
X8081Y4896D01*
X8085D01*
X8088Y4897D01*
X8094Y4897D01*
X8099Y4899D01*
X8105Y4900D01*
X8112Y4903D01*
X8117Y4906D01*
X8118Y4906D01*
X8120Y4908D01*
X8123Y4910D01*
X8126Y4913D01*
X8131Y4917D01*
X8135Y4922D01*
X8139Y4927D01*
X8143Y4933D01*
X8143Y4934D01*
X8144Y4936D01*
X8146Y4940D01*
X8149Y4945D01*
X8151Y4950D01*
X8153Y4957D01*
X8156Y4965D01*
X8158Y4973D01*
Y4973D01*
X8158Y4974D01*
Y4975D01*
X8158Y4977D01*
X8159Y4979D01*
X8159Y4981D01*
X8160Y4988D01*
X8161Y4995D01*
X8162Y5003D01*
X8162Y5013D01*
Y5022D01*
Y5022D01*
Y5023D01*
Y5025D01*
Y5027D01*
Y5029D01*
X8162Y5032D01*
Y5039D01*
X8161Y5047D01*
X8160Y5056D01*
X8160Y5065D01*
X8158Y5074D01*
Y5074D01*
Y5075D01*
X8158Y5076D01*
X8157Y5078D01*
X8156Y5082D01*
X8155Y5088D01*
X8153Y5094D01*
X8150Y5101D01*
X8147Y5108D01*
X8144Y5114D01*
X8143Y5115D01*
X8142Y5117D01*
X8140Y5120D01*
X8137Y5124D01*
X8133Y5128D01*
X8129Y5133D01*
X8124Y5137D01*
X8118Y5141D01*
X8117Y5141D01*
X8115Y5143D01*
X8112Y5144D01*
X8108Y5146D01*
X8103Y5148D01*
X8096Y5149D01*
X8089Y5150D01*
X8081Y5150D01*
D02*
G37*
G36*
X7806Y4755D02*
X7803D01*
X7799Y4755D01*
X7794Y4754D01*
X7788Y4753D01*
X7782Y4751D01*
X7776Y4748D01*
X7770Y4745D01*
X7769Y4744D01*
X7768Y4743D01*
X7765Y4741D01*
X7762Y4738D01*
X7757Y4734D01*
X7753Y4729D01*
X7749Y4724D01*
X7745Y4718D01*
X7745Y4717D01*
X7743Y4715D01*
X7742Y4711D01*
X7740Y4706D01*
X7737Y4701D01*
X7735Y4694D01*
X7732Y4686D01*
X7730Y4678D01*
Y4677D01*
Y4677D01*
X7730Y4675D01*
X7730Y4674D01*
X7729Y4672D01*
Y4669D01*
X7728Y4663D01*
X7727Y4656D01*
X7727Y4647D01*
X7726Y4638D01*
X7726Y4629D01*
Y4628D01*
Y4628D01*
Y4626D01*
Y4624D01*
Y4622D01*
X7726Y4619D01*
Y4612D01*
X7727Y4603D01*
X7728Y4595D01*
X7729Y4585D01*
X7730Y4576D01*
Y4576D01*
X7731Y4576D01*
Y4574D01*
X7731Y4572D01*
X7732Y4568D01*
X7734Y4562D01*
X7736Y4556D01*
X7738Y4550D01*
X7741Y4543D01*
X7744Y4536D01*
X7745Y4535D01*
X7746Y4533D01*
X7748Y4530D01*
X7751Y4527D01*
X7755Y4522D01*
X7759Y4518D01*
X7764Y4514D01*
X7769Y4510D01*
X7770Y4510D01*
X7772Y4509D01*
X7775Y4507D01*
X7780Y4505D01*
X7785Y4504D01*
X7791Y4502D01*
X7798Y4501D01*
X7806Y4501D01*
X7810D01*
X7814Y4501D01*
X7819Y4502D01*
X7825Y4503D01*
X7831Y4505D01*
X7837Y4508D01*
X7843Y4511D01*
X7844Y4511D01*
X7845Y4512D01*
X7848Y4515D01*
X7852Y4518D01*
X7856Y4522D01*
X7860Y4526D01*
X7864Y4532D01*
X7868Y4538D01*
X7869Y4539D01*
X7870Y4541D01*
X7871Y4544D01*
X7874Y4549D01*
X7876Y4555D01*
X7878Y4562D01*
X7881Y4569D01*
X7883Y4578D01*
Y4578D01*
X7883Y4579D01*
Y4580D01*
X7884Y4582D01*
X7884Y4584D01*
X7885Y4586D01*
X7885Y4592D01*
X7886Y4600D01*
X7887Y4608D01*
X7888Y4617D01*
Y4627D01*
Y4627D01*
Y4628D01*
Y4630D01*
Y4632D01*
Y4634D01*
X7887Y4637D01*
Y4644D01*
X7887Y4652D01*
X7886Y4660D01*
X7885Y4669D01*
X7883Y4678D01*
Y4679D01*
Y4680D01*
X7883Y4681D01*
X7882Y4683D01*
X7881Y4687D01*
X7880Y4692D01*
X7878Y4699D01*
X7875Y4706D01*
X7872Y4713D01*
X7869Y4719D01*
X7869Y4720D01*
X7867Y4722D01*
X7865Y4725D01*
X7862Y4729D01*
X7858Y4733D01*
X7854Y4738D01*
X7849Y4742D01*
X7844Y4746D01*
X7843Y4746D01*
X7841Y4747D01*
X7837Y4749D01*
X7833Y4751D01*
X7828Y4752D01*
X7821Y4754D01*
X7814Y4755D01*
X7806Y4755D01*
D02*
G37*
%LPD*%
M02*
