G04*
G04 #@! TF.GenerationSoftware,Altium Limited,Altium Designer,22.2.1 (43)*
G04*
G04 Layer_Physical_Order=4*
G04 Layer_Color=16711680*
%FSLAX24Y24*%
%MOIN*%
G70*
G04*
G04 #@! TF.SameCoordinates,385840A5-E032-4D16-B727-23F4FCC5E7AD*
G04*
G04*
G04 #@! TF.FilePolarity,Positive*
G04*
G01*
G75*
%ADD30C,0.0180*%
%ADD33C,0.0050*%
%ADD34C,0.0180*%
D30*
X689Y1870D02*
X984D01*
X689D02*
Y2067D01*
X1834Y1870D02*
X2720Y984D01*
X984Y1870D02*
X1834D01*
X3445Y4823D02*
X5906D01*
X689Y2067D02*
X3445Y4823D01*
X3051Y1765D02*
Y3458D01*
X3590Y3997D01*
X3051Y1765D02*
X3537Y1280D01*
X6398Y3150D02*
Y4331D01*
X5906Y4823D02*
X6398Y4331D01*
X4035Y984D02*
X4724Y1673D01*
X2720Y984D02*
X4035D01*
X3537Y1280D02*
X3543D01*
D33*
X6693Y2264D02*
X6890Y2067D01*
X3543Y2264D02*
X6693D01*
D34*
X8858Y787D02*
D03*
X8071D02*
D03*
X7677Y2067D02*
D03*
X5807Y2657D02*
D03*
X6398Y2756D02*
D03*
X6496Y886D02*
D03*
X7087Y591D02*
D03*
X3543Y295D02*
D03*
X6758Y4232D02*
D03*
X5906Y4429D02*
D03*
X5610Y4134D02*
D03*
X4429Y4232D02*
D03*
X3937Y4593D02*
D03*
X3248Y4232D02*
D03*
X1280Y3642D02*
D03*
Y3248D02*
D03*
X689Y1870D02*
D03*
X984D02*
D03*
X3642Y2756D02*
D03*
X4429Y2657D02*
D03*
X4331Y1673D02*
D03*
X8945Y3937D02*
D03*
Y3150D02*
D03*
X8563Y3543D02*
D03*
X591Y4035D02*
D03*
X208Y4429D02*
D03*
Y3642D02*
D03*
X886Y3051D02*
D03*
X394Y2854D02*
D03*
X6398Y3150D02*
D03*
X5906Y4823D02*
D03*
X4724Y1673D02*
D03*
X3543Y1280D02*
D03*
X3590Y3997D02*
D03*
X4843Y3622D02*
D03*
X5217Y3602D02*
D03*
X5197Y3228D02*
D03*
X4823Y3248D02*
D03*
X6890Y2067D02*
D03*
X3543Y2264D02*
D03*
M02*
