M48
;Layer_Color=9474304
;FILE_FORMAT=2:4
INCH
;TYPE=PLATED
T1F00S00C0.0100
%
T01
X000689Y001870
X000984
X000886Y003051
X001280Y003248
Y003642
X000208
X000591Y004035
X000208Y004429
X000394Y002854
X003642Y002756
X003543Y002264
Y001280
Y000295
X004331Y001673
X004724
X004429Y002657
X004823Y003248
X004843Y003622
X005217Y003602
X005197Y003228
X005610Y004134
X004429Y004232
X003937Y004593
X003590Y003997
X003248Y004232
X005906Y004429
Y004823
X006758Y004232
X006398Y003150
Y002756
X005807Y002657
X006890Y002067
X007677
X008071Y000787
X008858
X007087Y000591
X006496Y000886
X008945Y003150
X008563Y003543
X008945Y003937
M30
